<mxfile host="app.diagrams.net" modified="2024-05-30T01:48:44.620Z" agent="Mozilla/5.0 (Macintosh; Intel Mac OS X 10_15_7) AppleWebKit/537.36 (KHTML, like Gecko) Chrome/125.0.0.0 Safari/537.36 Edg/125.0.0.0" etag="hXIU5UtsIuxgNyrPkUJN" version="24.0.7" type="device">
  <diagram name="第 1 页" id="HJdR2ewPqc4SO0az2n2Y">
    <mxGraphModel dx="881" dy="-2804" grid="1" gridSize="10" guides="1" tooltips="1" connect="1" arrows="1" fold="1" page="1" pageScale="1" pageWidth="1169" pageHeight="827" background="#ffffff" math="0" shadow="1">
      <root>
        <mxCell id="0" />
        <mxCell id="1" parent="0" />
        <mxCell id="p9Vdy9ozkMkJOrNqYk9j-1" value="" style="rounded=0;whiteSpace=wrap;html=1;fillColor=#FFB366;strokeColor=#36393d;strokeWidth=2;container=0;shadow=1;" parent="1" vertex="1">
          <mxGeometry x="110" y="4100" width="150" height="110" as="geometry" />
        </mxCell>
        <mxCell id="p9Vdy9ozkMkJOrNqYk9j-2" value="&lt;b&gt;HardWare&lt;/b&gt;" style="rounded=0;whiteSpace=wrap;html=1;fillColor=#CCCCCC;strokeColor=#36393d;strokeWidth=2;container=0;shadow=1;" parent="1" vertex="1">
          <mxGeometry x="110" y="4220" width="150" height="40" as="geometry" />
        </mxCell>
        <mxCell id="p9Vdy9ozkMkJOrNqYk9j-3" value="" style="endArrow=none;html=1;rounded=0;entryX=0.008;entryY=0.162;entryDx=0;entryDy=0;exitX=0.992;exitY=0.162;exitDx=0;exitDy=0;entryPerimeter=0;exitPerimeter=0;" parent="1" source="p9Vdy9ozkMkJOrNqYk9j-1" target="p9Vdy9ozkMkJOrNqYk9j-1" edge="1">
          <mxGeometry width="50" height="50" relative="1" as="geometry">
            <mxPoint x="260" y="4128" as="sourcePoint" />
            <mxPoint x="190" y="4110" as="targetPoint" />
          </mxGeometry>
        </mxCell>
        <mxCell id="p9Vdy9ozkMkJOrNqYk9j-4" value="" style="endArrow=none;html=1;rounded=0;entryX=0.005;entryY=0.358;entryDx=0;entryDy=0;entryPerimeter=0;exitX=1;exitY=0.358;exitDx=0;exitDy=0;exitPerimeter=0;" parent="1" source="p9Vdy9ozkMkJOrNqYk9j-1" target="p9Vdy9ozkMkJOrNqYk9j-1" edge="1">
          <mxGeometry width="50" height="50" relative="1" as="geometry">
            <mxPoint x="260" y="4154.76" as="sourcePoint" />
            <mxPoint x="110" y="4154.76" as="targetPoint" />
          </mxGeometry>
        </mxCell>
        <mxCell id="p9Vdy9ozkMkJOrNqYk9j-5" value="" style="endArrow=none;html=1;rounded=0;entryX=0.002;entryY=0.667;entryDx=0;entryDy=0;entryPerimeter=0;exitX=0.992;exitY=0.665;exitDx=0;exitDy=0;exitPerimeter=0;" parent="1" source="p9Vdy9ozkMkJOrNqYk9j-1" target="p9Vdy9ozkMkJOrNqYk9j-1" edge="1">
          <mxGeometry width="50" height="50" relative="1" as="geometry">
            <mxPoint x="260" y="4180" as="sourcePoint" />
            <mxPoint x="110" y="4180" as="targetPoint" />
          </mxGeometry>
        </mxCell>
        <mxCell id="p9Vdy9ozkMkJOrNqYk9j-6" value="&lt;font style=&quot;font-size: 12px;&quot; face=&quot;Times New Roman&quot;&gt;VFS&lt;/font&gt;" style="text;strokeColor=none;align=center;fillColor=none;html=1;verticalAlign=middle;whiteSpace=wrap;rounded=0;strokeWidth=1;container=0;" parent="1" vertex="1">
          <mxGeometry x="135.57999999999998" y="4100" width="98.83" height="20" as="geometry" />
        </mxCell>
        <mxCell id="p9Vdy9ozkMkJOrNqYk9j-8" value="&lt;font style=&quot;font-size: 12px;&quot; face=&quot;Times New Roman&quot;&gt;IPC, File System&lt;/font&gt;" style="text;strokeColor=none;align=center;fillColor=none;html=1;verticalAlign=middle;whiteSpace=wrap;rounded=0;strokeWidth=1;container=0;" parent="1" vertex="1">
          <mxGeometry x="135.58" y="4115" width="98.83" height="20" as="geometry" />
        </mxCell>
        <mxCell id="p9Vdy9ozkMkJOrNqYk9j-9" value="&lt;font style=&quot;font-size: 12px;&quot; face=&quot;Times New Roman&quot;&gt;Scheduler, Virtual Memory&lt;/font&gt;" style="text;strokeColor=none;align=center;fillColor=none;html=1;verticalAlign=middle;whiteSpace=wrap;rounded=0;strokeWidth=1;container=0;" parent="1" vertex="1">
          <mxGeometry x="135.58" y="4145" width="98.83" height="20" as="geometry" />
        </mxCell>
        <mxCell id="p9Vdy9ozkMkJOrNqYk9j-10" value="&lt;font style=&quot;font-size: 12px;&quot; face=&quot;Times New Roman&quot;&gt;Device Driver&lt;/font&gt;" style="text;strokeColor=none;align=center;fillColor=none;html=1;verticalAlign=middle;whiteSpace=wrap;rounded=0;strokeWidth=1;container=0;" parent="1" vertex="1">
          <mxGeometry x="135.58" y="4180" width="98.83" height="20" as="geometry" />
        </mxCell>
        <mxCell id="p9Vdy9ozkMkJOrNqYk9j-11" value="&lt;b&gt;App&lt;/b&gt;" style="rounded=0;whiteSpace=wrap;html=1;fillColor=#d5e8d4;strokeColor=#82b366;strokeWidth=2;container=0;shadow=1;" parent="1" vertex="1">
          <mxGeometry x="110" y="4050" width="150" height="40" as="geometry" />
        </mxCell>
        <mxCell id="p9Vdy9ozkMkJOrNqYk9j-12" value="&lt;font face=&quot;Times New Roman&quot;&gt;IPC, Threads, Virtual Memory&lt;/font&gt;" style="rounded=0;whiteSpace=wrap;html=1;fillColor=#FFB366;strokeColor=#36393d;strokeWidth=2;container=0;shadow=1;" parent="1" vertex="1">
          <mxGeometry x="360" y="4160" width="340" height="50" as="geometry" />
        </mxCell>
        <mxCell id="p9Vdy9ozkMkJOrNqYk9j-13" value="&lt;b&gt;HardWare&lt;/b&gt;" style="rounded=0;whiteSpace=wrap;html=1;fillColor=#CCCCCC;strokeColor=#36393d;strokeWidth=2;container=0;shadow=1;" parent="1" vertex="1">
          <mxGeometry x="360" y="4220" width="340" height="40" as="geometry" />
        </mxCell>
        <mxCell id="p9Vdy9ozkMkJOrNqYk9j-21" value="&lt;b&gt;App&lt;/b&gt;" style="rounded=0;whiteSpace=wrap;html=1;fillColor=#d5e8d4;strokeColor=#82b366;strokeWidth=2;container=0;shadow=1;" parent="1" vertex="1">
          <mxGeometry x="360" y="4105" width="150" height="40" as="geometry" />
        </mxCell>
        <mxCell id="p9Vdy9ozkMkJOrNqYk9j-22" value="&lt;b&gt;NW protocol Stack&lt;/b&gt;" style="rounded=0;whiteSpace=wrap;html=1;fillColor=#d5e8d4;strokeColor=#82b366;strokeWidth=2;container=0;shadow=1;" parent="1" vertex="1">
          <mxGeometry x="510" y="4065" width="60" height="80" as="geometry" />
        </mxCell>
        <mxCell id="p9Vdy9ozkMkJOrNqYk9j-23" value="&lt;b&gt;Device Driver&lt;/b&gt;" style="rounded=0;whiteSpace=wrap;html=1;fillColor=#d5e8d4;strokeColor=#82b366;strokeWidth=2;container=0;shadow=1;" parent="1" vertex="1">
          <mxGeometry x="630" y="4065" width="60" height="80" as="geometry" />
        </mxCell>
        <mxCell id="p9Vdy9ozkMkJOrNqYk9j-24" value="&lt;b&gt;File System&lt;/b&gt;" style="rounded=0;whiteSpace=wrap;html=1;fillColor=#d5e8d4;strokeColor=#82b366;strokeWidth=2;container=0;shadow=1;" parent="1" vertex="1">
          <mxGeometry x="570" y="4065" width="60" height="80" as="geometry" />
        </mxCell>
        <mxCell id="p9Vdy9ozkMkJOrNqYk9j-25" value="" style="endArrow=none;html=1;rounded=0;exitX=1;exitY=0;exitDx=0;exitDy=0;entryX=0;entryY=0;entryDx=0;entryDy=0;" parent="1" source="p9Vdy9ozkMkJOrNqYk9j-1" target="p9Vdy9ozkMkJOrNqYk9j-12" edge="1">
          <mxGeometry width="50" height="50" relative="1" as="geometry">
            <mxPoint x="430" y="4100" as="sourcePoint" />
            <mxPoint x="480" y="4050" as="targetPoint" />
          </mxGeometry>
        </mxCell>
        <mxCell id="p9Vdy9ozkMkJOrNqYk9j-26" value="" style="endArrow=none;html=1;rounded=0;exitX=1;exitY=0;exitDx=0;exitDy=0;entryX=0;entryY=1;entryDx=0;entryDy=0;" parent="1" target="p9Vdy9ozkMkJOrNqYk9j-12" edge="1">
          <mxGeometry width="50" height="50" relative="1" as="geometry">
            <mxPoint x="260" y="4210" as="sourcePoint" />
            <mxPoint x="360" y="4270" as="targetPoint" />
          </mxGeometry>
        </mxCell>
        <mxCell id="p9Vdy9ozkMkJOrNqYk9j-27" value="&lt;font style=&quot;font-size: 12px;&quot; face=&quot;Times New Roman&quot;&gt;Kernel Mode&lt;/font&gt;" style="text;strokeColor=none;align=center;fillColor=none;html=1;verticalAlign=middle;whiteSpace=wrap;rounded=0;strokeWidth=1;container=0;" parent="1" vertex="1">
          <mxGeometry x="260" y="4165" width="98.83" height="20" as="geometry" />
        </mxCell>
        <mxCell id="p9Vdy9ozkMkJOrNqYk9j-32" value="" style="endArrow=classic;startArrow=classic;html=1;rounded=0;entryX=0.5;entryY=1;entryDx=0;entryDy=0;exitX=0.461;exitY=1.106;exitDx=0;exitDy=0;exitPerimeter=0;" parent="1" source="p9Vdy9ozkMkJOrNqYk9j-21" target="p9Vdy9ozkMkJOrNqYk9j-24" edge="1">
          <mxGeometry width="50" height="50" relative="1" as="geometry">
            <mxPoint x="430" y="4150" as="sourcePoint" />
            <mxPoint x="480" y="4180" as="targetPoint" />
            <Array as="points">
              <mxPoint x="430" y="4170" />
              <mxPoint x="600" y="4170" />
            </Array>
          </mxGeometry>
        </mxCell>
        <mxCell id="p9Vdy9ozkMkJOrNqYk9j-35" value="" style="endArrow=classic;startArrow=classic;html=1;rounded=0;exitX=0.118;exitY=0.2;exitDx=0;exitDy=0;exitPerimeter=0;entryX=0.267;entryY=0.875;entryDx=0;entryDy=0;entryPerimeter=0;" parent="1" source="p9Vdy9ozkMkJOrNqYk9j-12" target="p9Vdy9ozkMkJOrNqYk9j-21" edge="1">
          <mxGeometry width="50" height="50" relative="1" as="geometry">
            <mxPoint x="360" y="4180" as="sourcePoint" />
            <mxPoint x="410" y="4130" as="targetPoint" />
          </mxGeometry>
        </mxCell>
        <mxCell id="p9Vdy9ozkMkJOrNqYk9j-36" value="&lt;font style=&quot;font-size: 12px;&quot; face=&quot;Times New Roman&quot;&gt;syscall&lt;/font&gt;" style="text;strokeColor=none;align=center;fillColor=none;html=1;verticalAlign=middle;whiteSpace=wrap;rounded=0;strokeWidth=1;container=0;" parent="1" vertex="1">
          <mxGeometry x="348.83000000000004" y="4120" width="98.83" height="20" as="geometry" />
        </mxCell>
        <mxCell id="p9Vdy9ozkMkJOrNqYk9j-37" value="&lt;font style=&quot;font-size: 12px;&quot; face=&quot;Times New Roman&quot;&gt;IPC&lt;/font&gt;" style="text;strokeColor=none;align=center;fillColor=none;html=1;verticalAlign=middle;whiteSpace=wrap;rounded=0;strokeWidth=1;container=0;" parent="1" vertex="1">
          <mxGeometry x="400.00000000000006" y="4135" width="98.83" height="20" as="geometry" />
        </mxCell>
        <mxCell id="p9Vdy9ozkMkJOrNqYk9j-39" value="&lt;font face=&quot;Times New Roman&quot;&gt;Scheduler&lt;/font&gt;" style="ellipse;shape=cloud;whiteSpace=wrap;html=1;" parent="1" vertex="1">
          <mxGeometry x="610" y="4165" width="80" height="40" as="geometry" />
        </mxCell>
        <mxCell id="p9Vdy9ozkMkJOrNqYk9j-40" value="" style="endArrow=classic;html=1;rounded=0;exitX=0.706;exitY=0.5;exitDx=0;exitDy=0;exitPerimeter=0;entryX=0.55;entryY=0.95;entryDx=0;entryDy=0;entryPerimeter=0;" parent="1" source="p9Vdy9ozkMkJOrNqYk9j-13" target="p9Vdy9ozkMkJOrNqYk9j-39" edge="1">
          <mxGeometry width="50" height="50" relative="1" as="geometry">
            <mxPoint x="550" y="4250" as="sourcePoint" />
            <mxPoint x="600" y="4200" as="targetPoint" />
            <Array as="points">
              <mxPoint x="654" y="4240" />
            </Array>
          </mxGeometry>
        </mxCell>
        <mxCell id="p9Vdy9ozkMkJOrNqYk9j-41" value="&lt;font style=&quot;font-size: 12px;&quot; face=&quot;Times New Roman&quot;&gt;Interrupt&lt;/font&gt;" style="text;strokeColor=none;align=center;fillColor=none;html=1;verticalAlign=middle;whiteSpace=wrap;rounded=0;strokeWidth=1;container=0;" parent="1" vertex="1">
          <mxGeometry x="570" y="4220" width="98.83" height="20" as="geometry" />
        </mxCell>
        <mxCell id="p9Vdy9ozkMkJOrNqYk9j-42" value="" style="endArrow=classic;html=1;rounded=0;exitX=0.625;exitY=0.2;exitDx=0;exitDy=0;exitPerimeter=0;" parent="1" source="p9Vdy9ozkMkJOrNqYk9j-39" target="p9Vdy9ozkMkJOrNqYk9j-23" edge="1">
          <mxGeometry width="50" height="50" relative="1" as="geometry">
            <mxPoint x="550" y="4250" as="sourcePoint" />
            <mxPoint x="600" y="4200" as="targetPoint" />
          </mxGeometry>
        </mxCell>
        <mxCell id="p9Vdy9ozkMkJOrNqYk9j-43" value="&lt;font style=&quot;font-size: 12px;&quot; face=&quot;Times New Roman&quot;&gt;Notification&lt;/font&gt;" style="text;strokeColor=none;align=center;fillColor=none;html=1;verticalAlign=middle;whiteSpace=wrap;rounded=0;strokeWidth=1;container=0;" parent="1" vertex="1">
          <mxGeometry x="650" y="4140" width="98.83" height="20" as="geometry" />
        </mxCell>
        <mxCell id="p9Vdy9ozkMkJOrNqYk9j-45" value="" style="endArrow=classic;startArrow=classic;html=1;rounded=0;exitX=0.118;exitY=0.2;exitDx=0;exitDy=0;exitPerimeter=0;entryX=0.267;entryY=0.875;entryDx=0;entryDy=0;entryPerimeter=0;" parent="1" edge="1">
          <mxGeometry width="50" height="50" relative="1" as="geometry">
            <mxPoint x="130" y="4115" as="sourcePoint" />
            <mxPoint x="130" y="4085" as="targetPoint" />
          </mxGeometry>
        </mxCell>
        <mxCell id="p9Vdy9ozkMkJOrNqYk9j-46" value="&lt;font style=&quot;font-size: 12px;&quot; face=&quot;Times New Roman&quot;&gt;syscall&lt;/font&gt;" style="text;strokeColor=none;align=center;fillColor=none;html=1;verticalAlign=middle;whiteSpace=wrap;rounded=0;strokeWidth=1;container=0;" parent="1" vertex="1">
          <mxGeometry x="90.00000000000006" y="4065" width="98.83" height="20" as="geometry" />
        </mxCell>
        <mxCell id="B-JMvFTmKCqjfrojI3Oj-91" value="" style="rounded=0;whiteSpace=wrap;html=1;strokeWidth=2;container=0;shadow=1;" vertex="1" parent="1">
          <mxGeometry x="400" y="4390" width="200" height="150" as="geometry" />
        </mxCell>
        <mxCell id="B-JMvFTmKCqjfrojI3Oj-93" value="&lt;font face=&quot;Times New Roman&quot;&gt;NTFN Object 1&lt;/font&gt;" style="rounded=0;whiteSpace=wrap;html=1;strokeWidth=2;container=0;shadow=1;" vertex="1" parent="1">
          <mxGeometry x="415" y="4420" width="175" height="20" as="geometry" />
        </mxCell>
        <mxCell id="B-JMvFTmKCqjfrojI3Oj-94" value="&lt;font face=&quot;Times New Roman&quot;&gt;NTFN Object 2&lt;/font&gt;" style="rounded=0;whiteSpace=wrap;html=1;strokeWidth=2;container=0;shadow=1;" vertex="1" parent="1">
          <mxGeometry x="415" y="4490" width="170" height="20" as="geometry" />
        </mxCell>
        <mxCell id="B-JMvFTmKCqjfrojI3Oj-95" value="" style="rounded=0;whiteSpace=wrap;html=1;strokeWidth=2;container=0;shadow=1;" vertex="1" parent="1">
          <mxGeometry x="291.1" y="4390" width="80" height="150" as="geometry" />
        </mxCell>
        <mxCell id="B-JMvFTmKCqjfrojI3Oj-96" value="Receiver TCB" style="text;html=1;align=center;verticalAlign=middle;resizable=0;points=[];autosize=1;strokeColor=none;fillColor=none;" vertex="1" parent="1">
          <mxGeometry x="280" y="4360" width="100" height="30" as="geometry" />
        </mxCell>
        <mxCell id="B-JMvFTmKCqjfrojI3Oj-97" value="Kernel" style="text;html=1;align=center;verticalAlign=middle;resizable=0;points=[];autosize=1;strokeColor=none;fillColor=none;" vertex="1" parent="1">
          <mxGeometry x="468.83" y="4360" width="60" height="30" as="geometry" />
        </mxCell>
        <mxCell id="B-JMvFTmKCqjfrojI3Oj-98" value="" style="rounded=0;whiteSpace=wrap;html=1;strokeWidth=2;container=0;shadow=1;" vertex="1" parent="1">
          <mxGeometry x="635" y="4390" width="90" height="50" as="geometry" />
        </mxCell>
        <mxCell id="B-JMvFTmKCqjfrojI3Oj-99" value="Sender TCB 1" style="text;html=1;align=center;verticalAlign=middle;resizable=0;points=[];autosize=1;strokeColor=none;fillColor=none;" vertex="1" parent="1">
          <mxGeometry x="630" y="4360" width="100" height="30" as="geometry" />
        </mxCell>
        <mxCell id="B-JMvFTmKCqjfrojI3Oj-101" value="Cap1" style="ellipse;whiteSpace=wrap;html=1;shadow=1;rounded=0;strokeColor=#666666;strokeWidth=2;align=center;verticalAlign=middle;fontFamily=Helvetica;fontSize=12;fillColor=#f5f5f5;fontColor=#333333;" vertex="1" parent="1">
          <mxGeometry x="308.89000000000004" y="4410" width="42.21" height="40" as="geometry" />
        </mxCell>
        <mxCell id="B-JMvFTmKCqjfrojI3Oj-106" value="Cap3" style="ellipse;whiteSpace=wrap;html=1;shadow=1;rounded=0;strokeColor=#666666;strokeWidth=2;align=center;verticalAlign=middle;fontFamily=Helvetica;fontSize=12;fillColor=#f5f5f5;fontColor=#333333;" vertex="1" parent="1">
          <mxGeometry x="663.31" y="4395" width="42.21" height="40" as="geometry" />
        </mxCell>
        <mxCell id="B-JMvFTmKCqjfrojI3Oj-110" value="" style="rounded=0;whiteSpace=wrap;html=1;strokeWidth=2;container=0;shadow=1;" vertex="1" parent="1">
          <mxGeometry x="635" y="4490" width="130" height="50" as="geometry" />
        </mxCell>
        <mxCell id="B-JMvFTmKCqjfrojI3Oj-111" value="Sender TCB 2" style="text;html=1;align=center;verticalAlign=middle;resizable=0;points=[];autosize=1;strokeColor=none;fillColor=none;" vertex="1" parent="1">
          <mxGeometry x="645" y="4460" width="100" height="30" as="geometry" />
        </mxCell>
        <mxCell id="B-JMvFTmKCqjfrojI3Oj-112" value="Cap4" style="ellipse;whiteSpace=wrap;html=1;shadow=1;rounded=0;strokeColor=#666666;strokeWidth=2;align=center;verticalAlign=middle;fontFamily=Helvetica;fontSize=12;fillColor=#f5f5f5;fontColor=#333333;" vertex="1" parent="1">
          <mxGeometry x="645" y="4495" width="42.21" height="40" as="geometry" />
        </mxCell>
        <mxCell id="B-JMvFTmKCqjfrojI3Oj-113" value="Cap5" style="ellipse;whiteSpace=wrap;html=1;shadow=1;rounded=0;strokeColor=#666666;strokeWidth=2;align=center;verticalAlign=middle;fontFamily=Helvetica;fontSize=12;fillColor=#f5f5f5;fontColor=#333333;" vertex="1" parent="1">
          <mxGeometry x="715" y="4495" width="42.21" height="40" as="geometry" />
        </mxCell>
        <mxCell id="B-JMvFTmKCqjfrojI3Oj-116" value="Cap2" style="ellipse;whiteSpace=wrap;html=1;shadow=1;rounded=0;strokeColor=#666666;strokeWidth=2;align=center;verticalAlign=middle;fontFamily=Helvetica;fontSize=12;fillColor=#f5f5f5;fontColor=#333333;" vertex="1" parent="1">
          <mxGeometry x="310.00000000000006" y="4480" width="42.21" height="40" as="geometry" />
        </mxCell>
        <mxCell id="B-JMvFTmKCqjfrojI3Oj-118" value="" style="endArrow=classic;html=1;rounded=0;exitX=0;exitY=0.5;exitDx=0;exitDy=0;entryX=1;entryY=0.5;entryDx=0;entryDy=0;" edge="1" parent="1" source="B-JMvFTmKCqjfrojI3Oj-93" target="B-JMvFTmKCqjfrojI3Oj-101">
          <mxGeometry width="50" height="50" relative="1" as="geometry">
            <mxPoint x="350" y="4410" as="sourcePoint" />
            <mxPoint x="400" y="4360" as="targetPoint" />
          </mxGeometry>
        </mxCell>
        <mxCell id="B-JMvFTmKCqjfrojI3Oj-119" value="" style="endArrow=classic;html=1;rounded=0;exitX=0;exitY=0.5;exitDx=0;exitDy=0;entryX=1;entryY=0.5;entryDx=0;entryDy=0;" edge="1" parent="1" source="B-JMvFTmKCqjfrojI3Oj-94" target="B-JMvFTmKCqjfrojI3Oj-116">
          <mxGeometry width="50" height="50" relative="1" as="geometry">
            <mxPoint x="350" y="4410" as="sourcePoint" />
            <mxPoint x="400" y="4360" as="targetPoint" />
          </mxGeometry>
        </mxCell>
        <mxCell id="B-JMvFTmKCqjfrojI3Oj-120" value="" style="endArrow=classic;html=1;rounded=0;exitX=0;exitY=0.5;exitDx=0;exitDy=0;entryX=1;entryY=0.5;entryDx=0;entryDy=0;" edge="1" parent="1" source="B-JMvFTmKCqjfrojI3Oj-106" target="B-JMvFTmKCqjfrojI3Oj-93">
          <mxGeometry width="50" height="50" relative="1" as="geometry">
            <mxPoint x="350" y="4410" as="sourcePoint" />
            <mxPoint x="400" y="4360" as="targetPoint" />
          </mxGeometry>
        </mxCell>
        <mxCell id="B-JMvFTmKCqjfrojI3Oj-121" value="" style="endArrow=classic;html=1;rounded=0;exitX=0;exitY=0.5;exitDx=0;exitDy=0;entryX=1;entryY=0.5;entryDx=0;entryDy=0;" edge="1" parent="1" source="B-JMvFTmKCqjfrojI3Oj-112" target="B-JMvFTmKCqjfrojI3Oj-94">
          <mxGeometry width="50" height="50" relative="1" as="geometry">
            <mxPoint x="350" y="4410" as="sourcePoint" />
            <mxPoint x="400" y="4360" as="targetPoint" />
          </mxGeometry>
        </mxCell>
        <mxCell id="B-JMvFTmKCqjfrojI3Oj-122" value="" style="endArrow=classic;html=1;rounded=0;exitX=0;exitY=0.5;exitDx=0;exitDy=0;entryX=1.005;entryY=0.585;entryDx=0;entryDy=0;entryPerimeter=0;" edge="1" parent="1" source="B-JMvFTmKCqjfrojI3Oj-113" target="B-JMvFTmKCqjfrojI3Oj-93">
          <mxGeometry width="50" height="50" relative="1" as="geometry">
            <mxPoint x="350" y="4410" as="sourcePoint" />
            <mxPoint x="400" y="4360" as="targetPoint" />
          </mxGeometry>
        </mxCell>
        <mxCell id="B-JMvFTmKCqjfrojI3Oj-124" value="&lt;font face=&quot;Times New Roman&quot;&gt;recv status idx&lt;/font&gt;" style="rounded=0;whiteSpace=wrap;html=1;strokeWidth=2;container=0;shadow=1;fillColor=#f8cecc;strokeColor=#b85450;" vertex="1" parent="1">
          <mxGeometry x="415" y="4440" width="75" height="20" as="geometry" />
        </mxCell>
        <mxCell id="B-JMvFTmKCqjfrojI3Oj-125" value="&lt;font face=&quot;Times New Roman&quot;&gt;send status entries&lt;/font&gt;" style="rounded=0;whiteSpace=wrap;html=1;strokeWidth=2;container=0;shadow=1;fillColor=#f8cecc;strokeColor=#b85450;" vertex="1" parent="1">
          <mxGeometry x="490" y="4440" width="100" height="20" as="geometry" />
        </mxCell>
        <mxCell id="B-JMvFTmKCqjfrojI3Oj-126" value="" style="endArrow=none;dashed=1;html=1;rounded=0;exitX=1.034;exitY=0.079;exitDx=0;exitDy=0;exitPerimeter=0;fillColor=#f8cecc;strokeColor=#b85450;" edge="1" parent="1" source="B-JMvFTmKCqjfrojI3Oj-95">
          <mxGeometry width="50" height="50" relative="1" as="geometry">
            <mxPoint x="380" y="4470" as="sourcePoint" />
            <mxPoint x="430" y="4420" as="targetPoint" />
          </mxGeometry>
        </mxCell>
        <mxCell id="B-JMvFTmKCqjfrojI3Oj-127" value="&lt;font color=&quot;#e70808&quot;&gt;Bind&lt;/font&gt;" style="edgeLabel;html=1;align=center;verticalAlign=middle;resizable=0;points=[];" vertex="1" connectable="0" parent="B-JMvFTmKCqjfrojI3Oj-126">
          <mxGeometry x="0.0281" y="1" relative="1" as="geometry">
            <mxPoint as="offset" />
          </mxGeometry>
        </mxCell>
        <mxCell id="B-JMvFTmKCqjfrojI3Oj-128" value="❌" style="text;html=1;align=center;verticalAlign=middle;resizable=0;points=[];autosize=1;strokeColor=none;fillColor=none;" vertex="1" parent="1">
          <mxGeometry x="371.1" y="4485" width="40" height="30" as="geometry" />
        </mxCell>
        <mxCell id="B-JMvFTmKCqjfrojI3Oj-130" value="❌" style="text;html=1;align=center;verticalAlign=middle;resizable=0;points=[];autosize=1;strokeColor=none;fillColor=none;" vertex="1" parent="1">
          <mxGeometry x="600" y="4495" width="40" height="30" as="geometry" />
        </mxCell>
      </root>
    </mxGraphModel>
  </diagram>
</mxfile>
